<svg xmlns="http://www.w3.org/2000/svg" xmlns:xlink="http://www.w3.org/1999/xlink" height="20" weight="300" viewBox="0 100 800 432">
  <style>
    .st0 {
      fill: #0E76EA;
    }
    .st1 {
      fill: #212529;
    }
    .st2 {
      display: none;
      fill: none;
    }
  </style>
  <symbol id="b_x5F_blu_x5F_holes_x5F_color" viewBox="-36 -108 72 216"><path id="XMLID_15_" d="M0-36c-10.8 0-20.4-4.7-27-12.2V108h-9v-216h9v12.2c6.6-7.5 16.2-12.2 27-12.2 20 0 36 16 36 36S20-36 0-36zm0-63c-15 0-27 12-27 27s12 27 27 27 27-12 27-27S15-99 0-99z" class="st0"/></symbol>
  <symbol id="e_x5F_blu_x5F_holes_x5F_color" viewBox="-36 -36 72 72"><path id="XMLID_35_" d="M0 36c-20 0-36-16-36-36s16-36 36-36c13.3 0 25 7.2 31.2 18h-11C15-23.5 8-27 0-27c-11.8 0-21.8 7.5-25.5 18H36v9c0 20-16 36-36 36zM-27 0c0 15 12 27 27 27S27 15 27 0h-54z" class="st1"/></symbol>
  <symbol id="h_x5F_blu_x5F_holes_x5F_color" viewBox="-27 -108 54 216"><path id="XMLID_28_" d="M0-36c-7 0-13.2-2.6-18-7v151h-9v-216h9v45c0 10 8 18 18 18s18-8 18-18v-45h9v45c0 15-12 27-27 27z" class="st1"/><path id="XMLID_27_" d="M-27 108h54v-216h-54z" class="st2"/></symbol>
  <symbol id="hole_x5F_blu_x5F_holes_x5F_color" viewBox="-72 -18 144 36"><path id="XMLID_32_" d="M72 0c0-10-32.2-18-72-18s-72 8-72 18 32.2 18 72 18 72-8 72-18z" class="st0"/><path id="XMLID_31_" d="M-72 18H72v-36H-72z" class="st2"/></symbol>
  <symbol id="l2_x5F_bluholes_x5F_color" viewBox="-4.5 -108 9 216"><path id="XMLID_44_" d="M4.5-108h-9v216h9z" class="st1"/></symbol>
  <symbol id="l_x5F_blu_x5F_holes_x5F_color" viewBox="-4.5 -108 9 216"><path id="XMLID_20_" d="M4.5-108h-9v216h9z" class="st0"/></symbol>
  <symbol id="s_x5F_blu_x5F_holes_x5F_color" viewBox="-18 -31.8 36 63"><path
    id="XMLID_41_"
    d="M12 0C8.6 2.8 4.5 4.5 0 4.5c-5 0-9 4-9 9s4 8.8 9 8.8S9 18 9 13h9c0 10-8 18.3-18 18.3s-18-8-18-18c0-5.3 2.4-10 6-13.4 3.3-3 7.4-4.5 12-4.5 5 0 9-4 9-9s-4-9.3-9-9.3S-9-18-9-14h-9c0-9 8-17.8 18-17.8s18 8.2 18 18.2C18-8.2 15.6-3.3 12 0z"
    class="st1"/><path id="XMLID_40_" d="M-18 31h36v-62h-36z" class="st2"/></symbol>
  <symbol id="u_x5F_blu_x5F_holes_x5F_color" viewBox="-27 -36 54 72"><path id="XMLID_24_" d="M18 36V-9c0-10-8-18-18-18s-18 8-18 18v45h-9V-9c0-15 12-27 27-27S27-24 27-9v45h-9z" class="st0"/><path id="XMLID_23_" d="M-27 36h54v-72h-54z" class="st2"/></symbol>
  <g id="b_x5F_blu_x5F_holes"><use id="XMLID_2_" width="72" height="216" x="-36" y="-108" xlink:href="#b_x5F_blu_x5F_holes_x5F_color" transform="matrix(1 0 0 -1 144 216)" overflow="visible"/></g>
  <g id="l_x5F_blu_x5F_holes"><use id="XMLID_3_" width="9" height="216" x="-4.5" y="-108" xlink:href="#l_x5F_blu_x5F_holes_x5F_color" transform="matrix(1 0 0 -1 202.5 216)" overflow="visible"/></g>
  <g id="u_x5F_blu_x5F_holes"><use id="XMLID_4_" width="54" height="72" x="-27" y="-36" xlink:href="#u_x5F_blu_x5F_holes_x5F_color" transform="matrix(1 0 0 -1 252 288)" overflow="visible"/></g>
  <g id="h_x5F_blu_x5F_holes"><use id="XMLID_5_" width="54" height="216" x="-27" y="-108" xlink:href="#h_x5F_blu_x5F_holes_x5F_color" transform="matrix(1 0 0 -1 360 216)" overflow="visible"/></g>
  <g id="hole_x5F_blu_x5F_holes"><use id="XMLID_6_" width="144" height="36" x="-72" y="-18" xlink:href="#hole_x5F_blu_x5F_holes_x5F_color" transform="matrix(1 0 0 -1 477 342)" overflow="visible"/></g>
  <g id="l_x5F_2_x5F_blu_x5F_holes"><use id="XMLID_7_" width="9" height="216" x="-4.5" y="-108" xlink:href="#l2_x5F_bluholes_x5F_color" transform="matrix(1 0 0 -1 571.5 216)" overflow="visible"/></g>
  <g id="e_x5F_blu_x5F_holes"><use id="XMLID_8_" width="72" height="72" x="-36" y="-36" xlink:href="#e_x5F_blu_x5F_holes_x5F_color" transform="matrix(1 0 0 -1 630 288)" overflow="visible"/></g>
  <g id="s_x5F_blu_x5F_holes"><use id="XMLID_9_" width="36" height="63" x="-18" y="-31.8" xlink:href="#s_x5F_blu_x5F_holes_x5F_color" transform="matrix(1 0 0 -1 702 292)" overflow="visible"/></g>
</svg>
