<svg xmlns="http://www.w3.org/2000/svg" xmlns:xlink="http://www.w3.org/1999/xlink" viewBox="0 0 828 432" enable-background="new 0 0 828 432"><style type="text/css">.st0{fill:#0E76EA;} .st1{fill:#212529;} .st2{display:none;fill:none;}</style><symbol id="b_x5F_blu_x5F_holes_x5F_color" viewBox="-36 -108 72 216"><path id="XMLID_15_" class="st0" d="M0-36c-10.756 0-20.403-4.723-27-12.201v156.201h-9v-216h9v12.201c6.597-7.478 16.244-12.201 27-12.201 19.882 0 36 16.118 36 36s-16.118 36-36 36zm0-63c-14.912 0-27 12.088-27 27s12.088 27 27 27 27-12.088 27-27-12.088-27-27-27z"/></symbol><symbol id="e_x5F_blu_x5F_holes_x5F_color" viewBox="-36 -36 72 72"><path id="XMLID_35_" class="st1" d="M0 36c-19.882 0-36-16.118-36-36s16.118-36 36-36c13.323 0 24.947 7.243 31.172 18h-11.052c-4.944-5.522-12.124-9-20.119-9-11.755 0-21.75 7.514-25.458 18h61.457v9c0 19.882-16.118 36-36 36zm-27-36c0 14.912 12.088 27 27 27s27-12.088 27-27h-54z"/></symbol><symbol id="h_x5F_blu_x5F_holes_x5F_color" viewBox="-27 -108 54 216"><path id="XMLID_28_" class="st1" d="M0-36c-6.917 0-13.223-2.604-18-6.881v150.881h-9v-216h9v45c0 9.941 8.059 18 18 18s18-8.059 18-18v-45h9v45c0 14.912-12.088 27-27 27z"/><path id="XMLID_27_" class="st2" d="M-27 108h54v-216h-54z"/></symbol><symbol id="hole_x5F_blu_x5F_holes_x5F_color" viewBox="-72 -18 144 36"><path id="XMLID_32_" class="st0" d="M72 0c0-9.941-32.235-18-72-18s-72 8.059-72 18 32.235 18 72 18 72-8.059 72-18z"/><path id="XMLID_31_" class="st2" d="M-72 18h144v-36h-144z"/></symbol><symbol id="l2_x5F_bluholes_x5F_color" viewBox="-4.5 -108 9 216"><path id="XMLID_44_" class="st1" d="M4.5-108h-9v216h9z"/></symbol><symbol id="l_x5F_blu_x5F_holes_x5F_color" viewBox="-4.5 -108 9 216"><path id="XMLID_20_" class="st0" d="M4.5-108h-9v216h9z"/></symbol><symbol id="s_x5F_blu_x5F_holes_x5F_color" viewBox="-18 -31.75 36 63"><path id="XMLID_41_" class="st1" d="M11.878 0c-3.171 2.793-7.321 4.5-11.878 4.5-4.971 0-9 4.029-9 9s4.029 8.75 9 8.75 9-4.25 9-9.25h9c0 10-8.059 18.25-18 18.25s-18-7.934-18-17.875c0-5.383 2.376-10.139 6.122-13.437 3.171-2.793 7.321-4.469 11.878-4.469 4.971 0 9-4.014 9-8.984 0-4.971-4.029-9.242-9-9.242s-9 4.758-9 8.758h-9c0-9 8.059-17.75 18-17.75s18 8.184 18 18.125c0 5.383-2.376 10.326-6.122 13.625z"/><path id="XMLID_40_" class="st2" d="M-18 31h36v-62h-36z"/></symbol><symbol id="u_x5F_blu_x5F_holes_x5F_color" viewBox="-27 -36 54 72"><path id="XMLID_24_" class="st0" d="M18 36v-45c0-9.941-8.059-18-18-18s-18 8.059-18 18v45h-9v-45c0-14.912 12.088-27 27-27s27 12.088 27 27v45h-9z"/><path id="XMLID_23_" class="st2" d="M-27 36h54v-72h-54z"/></symbol><use xlink:href="#b_x5F_blu_x5F_holes_x5F_color" width="72" height="216" id="XMLID_2_" x="-36" y="-108" transform="matrix(1 0 0 -1 144 216)" overflow="visible"/><use xlink:href="#l_x5F_blu_x5F_holes_x5F_color" width="9" height="216" id="XMLID_3_" x="-4.5" y="-108" transform="matrix(1 0 0 -1 202.5 216)" overflow="visible"/><use xlink:href="#u_x5F_blu_x5F_holes_x5F_color" width="54" height="72" id="XMLID_4_" x="-27" y="-36" transform="matrix(1 0 0 -1 252 288)" overflow="visible"/><use xlink:href="#h_x5F_blu_x5F_holes_x5F_color" width="54" height="216" id="XMLID_5_" x="-27" y="-108" transform="matrix(1 0 0 -1 360 216)" overflow="visible"/><use xlink:href="#hole_x5F_blu_x5F_holes_x5F_color" width="144" height="36" id="XMLID_6_" x="-72" y="-18" transform="matrix(1 0 0 -1 477 342)" overflow="visible"/><use xlink:href="#l2_x5F_bluholes_x5F_color" width="9" height="216" id="XMLID_7_" x="-4.5" y="-108" transform="matrix(1 0 0 -1 571.5 216)" overflow="visible"/><use xlink:href="#e_x5F_blu_x5F_holes_x5F_color" width="72" height="72" id="XMLID_8_" x="-36" y="-36" transform="matrix(1 0 0 -1 630 288)" overflow="visible"/><use xlink:href="#s_x5F_blu_x5F_holes_x5F_color" width="36" height="63" id="XMLID_9_" x="-18" y="-31.75" transform="matrix(1 0 0 -1 702 292)" overflow="visible"/></svg>